<?xml version="1.0" encoding="UTF-8"?>
<!DOCTYPE svg PUBLIC "-//W3C//DTD SVG 1.1//EN" "http://www.w3.org/Graphics/SVG/1.1/DTD/svg11.dtd">
<svg xmlns="http://www.w3.org/2000/svg" version="1.1" width="140px" height="56px" style="shape-rendering:geometricPrecision; text-rendering:geometricPrecision; image-rendering:optimizeQuality; fill-rule:evenodd; clip-rule:evenodd" xmlns:xlink="http://www.w3.org/1999/xlink">
<g><path style="opacity:1" fill="#fcfcfc" d="M -0.5,-0.5 C 46.1667,-0.5 92.8333,-0.5 139.5,-0.5C 139.5,18.1667 139.5,36.8333 139.5,55.5C 92.8333,55.5 46.1667,55.5 -0.5,55.5C -0.5,36.8333 -0.5,18.1667 -0.5,-0.5 Z"/></g>
<g><path style="opacity:1" fill="#656565" d="M 107.5,3.5 C 113.328,4.29704 113.995,6.79704 109.5,11C 110.449,11.6172 111.282,11.4506 112,10.5C 112.483,11.448 112.649,12.448 112.5,13.5C 110.396,13.7989 108.396,13.4656 106.5,12.5C 108.261,10.7475 109.594,8.74746 110.5,6.5C 110.167,5.83333 109.833,5.16667 109.5,4.5C 107.121,8.27989 106.454,7.94656 107.5,3.5 Z"/></g>
<g><path style="opacity:1" fill="#555555" d="M 96.5,11.5 C 97.8333,11.5 99.1667,11.5 100.5,11.5C 99.795,14.2443 99.795,16.911 100.5,19.5C 103.207,17.7167 103.873,15.3834 102.5,12.5C 102.833,12.1667 103.167,11.8333 103.5,11.5C 105.25,15.6758 104.25,19.0092 100.5,21.5C 99.5224,21.0233 98.6891,20.3567 98,19.5C 97.8446,17.144 97.8446,14.8107 98,12.5C 95.6019,16.4016 95.1019,16.0683 96.5,11.5 Z"/></g>
<g><path style="opacity:1" fill="#525252" d="M 78.5,11.5 C 83.6509,11.978 88.6509,11.978 93.5,11.5C 93.6816,13.5914 93.3482,15.5914 92.5,17.5C 95.2308,18.1561 95.0641,19.4894 92,21.5C 90.7637,18.5831 90.2637,15.5831 90.5,12.5C 89.5224,12.9767 88.6891,13.6433 88,14.5C 85.6014,22.3993 84.7681,22.3993 85.5,14.5C 85.2668,13.0683 84.6001,12.5683 83.5,13C 82.0936,15.4449 80.7602,17.9449 79.5,20.5C 79.1667,20.1667 78.8333,19.8333 78.5,19.5C 79.7521,17.2646 80.2521,14.9313 80,12.5C 77.6588,16.3659 77.1588,16.0325 78.5,11.5 Z"/></g>
<g><path style="opacity:1" fill="#505050" d="M 31.5,29.5 C 30.7387,28.6091 29.7387,27.9424 28.5,27.5C 27.2867,27.7472 26.62,28.4138 26.5,29.5C 26.5,30.5 26.5,31.5 26.5,32.5C 30.1928,33.0557 32.8595,31.7224 34.5,28.5C 35.2231,30.1639 34.8897,31.8306 33.5,33.5C 29.5411,34.6599 25.5411,34.8265 21.5,34C 23.3866,30.8176 24.7199,27.3176 25.5,23.5C 25.3918,22.5581 25.0585,21.7247 24.5,21C 28.4862,20.5012 32.4862,20.3345 36.5,20.5C 36.5086,22.3084 36.0086,23.9751 35,25.5C 34.51,24.2068 34.3433,22.8734 34.5,21.5C 32.5,21.5 30.5,21.5 28.5,21.5C 27.0675,26.8792 28.2342,27.5458 32,23.5C 32.1805,25.4884 32.0138,27.4884 31.5,29.5 Z"/></g>
<g><path style="opacity:1" fill="#c4c4c4" d="M 116.5,28.5 C 102.459,27.8514 88.7924,28.5181 75.5,30.5C 74.596,29.791 74.2627,28.791 74.5,27.5C 88.6766,27.1709 102.677,27.5042 116.5,28.5 Z"/></g>
<g><path style="opacity:1" fill="#a5a5a5" d="M 31.5,29.5 C 30.0017,29.1658 28.335,29.1658 26.5,29.5C 26.62,28.4138 27.2867,27.7472 28.5,27.5C 29.7387,27.9424 30.7387,28.6091 31.5,29.5 Z"/></g>
<g><path style="opacity:1" fill="#6a6a6a" d="M 116.5,28.5 C 103.208,30.4819 89.5409,31.1486 75.5,30.5C 88.7924,28.5181 102.459,27.8514 116.5,28.5 Z"/></g>
<g><path style="opacity:1" fill="#515151" d="M 37.5,30.5 C 38.2679,31.2625 38.7679,32.2625 39,33.5C 40.1133,31.6707 41.6133,30.8374 43.5,31C 42.5,32 41.5,33 40.5,34C 41.5,35 42.5,36 43.5,37C 41.6133,37.1626 40.1133,36.3293 39,34.5C 38.6667,35.5 38.3333,36.5 38,37.5C 37.5034,35.1902 37.3367,32.8568 37.5,30.5 Z"/></g>
<g><path style="opacity:1" fill="#5c5c5c" d="M 93.5,34.5 C 98.4943,34.329 100.328,36.6624 99,41.5C 97.8333,42.6667 96.6667,43.8333 95.5,45C 96.7839,45.6838 97.9505,45.5171 99,44.5C 99.49,45.7932 99.6567,47.1266 99.5,48.5C 96.7531,48.8134 94.0865,48.48 91.5,47.5C 93.524,45.3102 95.3573,42.9768 97,40.5C 97.7828,38.6815 97.2828,37.3482 95.5,36.5C 94.6143,37.325 94.281,38.325 94.5,39.5C 93.5,39.5 92.5,39.5 91.5,39.5C 91.3653,37.4458 92.032,35.7791 93.5,34.5 Z"/></g>
</svg>
